<?xml version="1.0" encoding="utf-8"?>
<!-- Generator: Adobe Illustrator 24.2.3, SVG Export Plug-In . SVG Version: 6.00 Build 0)  -->
<svg version="1.1" id="Layer_1" xmlns="http://www.w3.org/2000/svg" xmlns:xlink="http://www.w3.org/1999/xlink" x="0px" y="0px"
	 viewBox="0 0 1861.2 327.7" style="enable-background:new 0 0 1861.2 327.7;" xml:space="preserve">
<style type="text/css">
	.st0{fill:url(#SVGID_1_);}
	.st1{fill:#265ED4;}
	.st2{fill:url(#SVGID_2_);}
	.st3{fill:url(#SVGID_3_);}
	.st4{fill:url(#SVGID_4_);}
</style>
<g id="Layer_1_1_">
	<g>
		<g>
			<g>
				<path d="M1654,317.7c0-87.1,0-174.1,0-261.9c2.1,0,4,0,5.8,0c33.6,0,67.2,0.8,100.8-0.2c40.5-1.2,73.7,29.3,80.2,67.1
					c5.8,33.2-3.7,62.1-31.6,82.9c-7,5.2-15.8,8-24.2,12.1c20.8,32.8,42.1,66.4,63.4,100c-9.7,0-19.3,0-29,0
					c-19.8-30.9-39.6-61.8-59.3-92.8c-1.9-2.9-3.8-4.2-7.4-4.1c-22.5,0.2-45.1,0.1-67.6,0.1c-1.7,0-3.3,0.2-5.3,0.3
					c0,32.5,0,64.5,0,96.6C1671.2,317.7,1662.6,317.7,1654,317.7z M1680.1,197.9c29.9,0,59.2,0.1,88.5-0.1c8.8-0.1,17-3.2,23.9-8.6
					c17.4-13.7,24.3-32.3,23.9-53.9c-0.5-26.8-22.2-58.4-58.3-56.9c-24.1,1-48.2,0.2-72.4,0.2c-1.8,0-3.7,0-5.7,0
					C1680.1,118.7,1680.1,158.1,1680.1,197.9z"/>
				<path d="M1038.8,317.7c-0.2-1.9-0.4-3.7-0.4-5.6c0-83.5,0-167,0-250.5c0-1.7,0-3.4,0-5.8c2.2,0,4.1,0,5.9,0
					c34.1,0,68.3,0.6,102.4-0.2c47.8-1.1,84.5,44.8,79.8,90.3c-2.5,24.3-12,45.2-32.6,59.5c-7.3,5.1-16.1,8.1-24.5,12.3
					c0.6,0.9,1.6,2.5,2.5,4.1c19.2,30.1,38.4,60.3,57.6,90.5c1.1,1.7,1.9,3.6,2.8,5.4c-9.7,0-19.3,0-29,0c-0.2-0.6-0.4-1.3-0.8-1.8
					c-19.6-30.7-39.2-61.4-58.9-92c-1-1.6-3.7-2.9-5.7-2.9c-22.9-0.2-45.8-0.1-68.7-0.1c-1.5,0-3,0.2-4.9,0.3c0,2.4,0,4.5,0,6.5
					c0,28,0,56,0,84c0,2-0.4,4.1-0.6,6.1C1055.3,317.7,1047,317.7,1038.8,317.7z M1064.4,198.1c2.5,0,4.4,0,6.3,0
					c27.7-0.1,55.4,0.1,83.2-0.3c10.3-0.2,19.5-4.6,26.8-11.8c16.4-16,22.7-35.9,19.2-58.2c-4.1-26.3-25.3-50.1-56.3-49.3
					c-24.4,0.7-48.9,0.1-73.3,0.1c-1.8,0-3.7,0-5.8,0C1064.4,118.6,1064.4,158,1064.4,198.1z"/>
				<path d="M808.2,317.7c0-16.1,0.1-32.3,0.1-48.4c0-68.9,0-137.7,0-206.6c0-2,0-4.1,0-6.9c2.2,0,4,0,5.8,0
					c33.4,0,66.8,0.6,100.2-0.2c47.9-1.1,83.4,44.6,80.5,87c-2.1,30.7-15.5,54.8-42.8,70.2c-10.6,6-22.2,8.1-34.3,8.1
					c-25.7-0.1-51.3,0-77,0c-1.9,0-3.8,0-6.7,0c0,32.5,0,64.7,0,96.9C825.4,317.7,816.8,317.7,808.2,317.7z M834.4,197.9
					c29.5,0,58.4,0.2,87.3-0.1c10.5-0.1,19.8-4.6,27.3-11.9c16.5-15.8,22.3-35.7,19.1-57.7c-3.7-26-24-50.4-55.8-49.7
					c-24.1,0.5-48.2,0.1-72.3,0.1c-1.8,0-3.7,0-5.7,0C834.4,118.6,834.4,158,834.4,197.9z"/>
				<path d="M1279.7,317.7c0-87,0-174.1,0-261.5c8.5,0,16.9,0,25.9,0c0,87.2,0,174.4,0,261.5
					C1296.9,317.7,1288.3,317.7,1279.7,317.7z"/>
			</g>
		</g>
	</g>
</g>
<g id="Layer_2_1_">
</g>
<linearGradient id="SVGID_1_" gradientUnits="userSpaceOnUse" x1="8.0389" y1="-107.3546" x2="151.1864" y2="294.798" gradientTransform="matrix(1 0 0 -1 0 330)">
	<stop  offset="0.177" style="stop-color:#00D5FF"/>
	<stop  offset="0.3061" style="stop-color:#06C1F4"/>
	<stop  offset="0.5718" style="stop-color:#148BD7"/>
	<stop  offset="0.9012" style="stop-color:#1A4CAE"/>
</linearGradient>
<path class="st0" d="M190.5,13.4h-58.5L14.3,317.7h55.1c5.8,0,10.8-1.6,14.7-4.7c4-3.1,6.7-6.6,8.3-10.5l64.4-184
	c2.1-5.3,4.3-11.6,6.7-18.8C165.9,92.4,190.5,13.4,190.5,13.4z"/>
<path class="st1" d="M346.1,139.2v178.5h71V101.1c-13.3,0.9-26.4,2.2-37.7,3.4l-3.1,0.4c-8.3,1-16,5.2-21.6,11.4
	C349.2,122.7,346.1,130.8,346.1,139.2L346.1,139.2z"/>
<linearGradient id="SVGID_2_" gradientUnits="userSpaceOnUse" x1="249.0925" y1="177.2512" x2="-79.7594" y2="-63.1368" gradientTransform="matrix(1 0 0 -1 0 330)">
	<stop  offset="0.3803" style="stop-color:#00D5FF"/>
	<stop  offset="0.4684" style="stop-color:#02CFFD"/>
	<stop  offset="0.5906" style="stop-color:#08BDF6"/>
	<stop  offset="0.7327" style="stop-color:#129FEB"/>
	<stop  offset="0.8885" style="stop-color:#2077DC"/>
	<stop  offset="1" style="stop-color:#2B55CF"/>
</linearGradient>
<path class="st2" d="M321.8,113.6c-4.3,0.2-8.1,0.5-16.2,2.3C184.5,143.4,71.2,223.4,14.3,317.7h60.8c6.9,0,14-2.5,17.9-8.1
	c73.5-105.3,171.7-163.2,215.4-186C320.6,117.3,321.2,114.8,321.8,113.6z"/>
<path class="st1" d="M193.7,13.4h-61.6c0,0,12.7,4,17.4,15.2L244,302.4c1.9,4.3,4.8,8.1,8.6,11c3.8,2.9,8.7,4.3,14.8,4.3h54.7
	L208.2,23.3c-1.1-2.9-3.1-5.5-5.7-7.2C199.9,14.3,196.8,13.4,193.7,13.4L193.7,13.4z"/>
<radialGradient id="SVGID_3_" cx="-66.9592" cy="1154.2314" r="1" gradientTransform="matrix(78.3897 0 0 -78.3942 5630.8545 90582.9453)" gradientUnits="userSpaceOnUse">
	<stop  offset="0" style="stop-color:#FFD215"/>
	<stop  offset="1" style="stop-color:#FF9B00"/>
</radialGradient>
<path class="st3" d="M417.2,101.1V13.4h-71v87.4c0,1,0.2,2,0.6,2.9c0.4,0.9,1,1.7,1.8,2.4c0.8,0.7,1.7,1.2,2.6,1.4s2,0.4,3,0.2
	C375.1,104.7,399.8,102.4,417.2,101.1z"/>
<path class="st1" d="M541.3,266.1l-0.4-1.9l57.3-58.7c8.1-8.2,15.7-16.3,22.9-24.3c7-7.8,13.3-16.1,18.9-24.9
	c5.4-8.5,9.7-17.5,12.8-27c3.2-10,4.8-20.4,4.7-30.9c0-12.9-2.3-24.8-6.8-35.6c-4.4-10.6-11.1-20.1-19.5-27.9
	c-8.5-7.8-18.8-13.9-30.8-18.3c-12-4.4-25.6-6.6-40.6-6.6c-13.2-0.1-26.4,1.8-39.1,5.5c-11.8,3.5-22.8,9.2-32.4,16.9
	c-9.6,7.7-17.6,17.3-23.5,28.1c-6.1,10.9-10.3,23.6-12.6,38.1c11.4-0.5,30.2-1,44-1.2c10.4-0.2,19.7-6.1,24.8-15.2c0,0,0,0,0-0.1
	c2.7-4.6,6.2-8.6,10.5-11.8c6.6-5.1,14.7-7.6,24.3-7.6c11.8,0,20.6,3.2,26.4,9.7c5.8,6.5,8.7,15.8,8.7,27.9c0,7.1-0.9,14.1-2.7,21
	c-1.9,6.9-4.7,13.6-8.1,19.8c-4,7.1-8.6,13.9-13.8,20.2c-6.2,7.5-12.7,14.7-19.6,21.5l-87.7,88.3c-3.9,3.4-6.9,7.7-8.8,12.5
	c-1.6,4.1-2.4,8.5-2.5,13v20.9h58.5L541.3,266.1z"/>
<linearGradient id="SVGID_4_" gradientUnits="userSpaceOnUse" x1="602.8599" y1="41.4916" x2="506.8729" y2="41.6576" gradientTransform="matrix(1 0 0 -1 0 330)">
	<stop  offset="0" style="stop-color:#2B55CF"/>
	<stop  offset="1" style="stop-color:#1A4CAE"/>
</linearGradient>
<path class="st4" d="M655.6,265c-4-3.8-9.5-5.7-16.5-5.7h-12.3c0,0-0.1,0-0.1,0l-44.4,0c-0.4,0-0.8,0.1-1.2,0.1
	c-1.9,0-3.8,0.1-5.7,0.3c-4.7,0.3-9.3,0.8-13.9,1.6c-0.6,0.1-1.3,0.2-2,0.3c-3,0.4-5.8,0.8-8.4,1.2c-5.3,0.7-9.9,1.3-9.9,1.3
	c-10.4,10.7-22.2,22.8-29.3,30.1c-4.1,4.2-6.4,9.8-6.4,15.7v8h156.2v-37.6C661.7,273.8,659.7,268.8,655.6,265L655.6,265z"/>
<g>
	<path d="M1562.2,293.2c28.1-20.1,48.2-51.2,53.3-88c0.6-4.4,1-8.7,1.2-13.1c-8.3-10.7-16.9-20.9-26-30.5
		C1589.6,211.9,1578.7,254.7,1562.2,293.2z"/>
	<path d="M1517.3,128.6c0-4.9-3.9-8.8-8.8-8.8c-4.9,0-8.8,3.9-8.8,8.8s3.9,8.8,8.8,8.8C1513.3,137.4,1517.3,133.5,1517.3,128.6z
		 M1503.1,128.6c0-2.9,2.4-5.3,5.3-5.3c3,0,5.3,2.4,5.3,5.3c0,2.9-2.4,5.3-5.3,5.3C1505.5,134,1503.1,131.5,1503.1,128.6z"/>
	<path d="M1428.5,304.4c12,5.9,25.3,10,39.3,12c29,4.1,57.2-1.7,81.1-14.9c5.6-12.9,10.5-26.4,14.5-40.6
		C1514.7,288.4,1470.6,300.2,1428.5,304.4z"/>
	<path d="M1550.3,214.6c0-8.8-7.1-15.9-15.9-15.9c-8.8,0-15.9,7.1-15.9,15.9c0,8.8,7.1,15.9,15.9,15.9
		C1543.1,230.6,1550.3,223.4,1550.3,214.6z M1524.2,214.6c0-5.6,4.5-10.1,10.1-10.1c5.6,0,10.1,4.5,10.1,10.1s-4.5,10.1-10.1,10.1
		C1528.8,224.8,1524.2,220.2,1524.2,214.6z"/>
	<path d="M1616.4,176.1c-3.2-38.6-23.5-73.4-54.2-95.4c-15.9,1.6-31.4,4.2-46.8,7.8C1560.3,116,1592.1,145.5,1616.4,176.1z"/>
	<path d="M1534.4,252.3l29.8-17.2l6,3.5c0.7-2.4,1.1-4.2,1.6-6.3l0.1-0.3l-4.8-2.8v-33.5l-32.6-18.8l-29.6,17l-24.4-14.7v-29.4
		l7.2-4.5l20.8,12l25-14.5v-25.1l4.9-2.8c-1.9-1.6-3.6-2.9-5.5-4.3l-2.6,1.5l-21.8-12.6l-25,14.5v25.7l-6.4,4l-29.3-16.9l-29,16.8
		l-8.3-4.8c-0.4,1.6-0.7,3.3-1.1,5c-0.1,0.6-0.2,1.1-0.3,1.7l6.1,3.5v34.4l29.1,16.8v5.3l-21.5,12.4v28.9l21.8,12.5v2.8
		c1.9,1.3,3.5,2.5,6.5,4.4v-7.3l21.8-12.5v-28.9l-21.5-12.4V200l25.6-14.8l24.8,15v33.1L1534.4,252.3z M1510.5,200.8l23.9-13.8
		l23.9,13.8v27.5l-23.9,13.8l-23.9-13.8V200.8z M1492.2,119.2l16.3-9.4l16.3,9.4v18.7l-16.3,9.4l-16.3-9.4V119.2z M1464,223v18.7
		l-16.3,9.4l-16.3-9.4V223l16.3-9.4L1464,223z M1471.6,178.3l-23.9,13.8l-23.9-13.8v-27.5l23.9-13.8l23.9,13.8V178.3z"/>
	<path d="M1431.9,164.6c0,8.8,7.1,15.9,15.9,15.9s15.9-7.1,15.9-15.9c0-8.8-7.1-15.9-15.9-15.9S1431.9,155.8,1431.9,164.6z
		 M1457.9,164.6c0,5.6-4.5,10.1-10.1,10.1c-5.6,0-10.1-4.5-10.1-10.1c0-5.6,4.5-10.1,10.1-10.1
		C1453.4,154.5,1457.9,159,1457.9,164.6z"/>
	<path d="M1549.3,72.5c-13.6-7.5-28.7-12.7-45.1-15c-24.3-3.4-48,0.1-69.1,9c-7.5,16.4-14.1,33.1-20,50.2
		C1457.3,96.2,1501.3,79.9,1549.3,72.5z"/>
	<path d="M1439,232.3c0,4.9,3.9,8.8,8.8,8.8c4.9,0,8.8-3.9,8.8-8.8s-3.9-8.8-8.8-8.8C1442.9,223.5,1439,227.5,1439,232.3z
		 M1453.1,232.3c0,2.9-2.4,5.3-5.3,5.3c-3,0-5.3-2.4-5.3-5.3c0-2.9,2.4-5.3,5.3-5.3C1450.8,227,1453.1,229.4,1453.1,232.3z"/>
	<path d="M1420.2,74c-33.4,19.5-57.8,53.5-63.6,94.7c-0.2,1.6-0.5,3.3-0.6,5c11.4,15.8,23.1,29.4,35.1,41.6
		C1392.5,170.1,1399.1,123.7,1420.2,74z"/>
	<path d="M1355.2,189.2c0.7,44.1,23.7,84.1,59.5,107.4c18.4-1.7,35-4.6,50.2-8.5C1416.7,258.2,1381.8,224.8,1355.2,189.2z"/>
</g>
</svg>
