<?xml version="1.0" encoding="UTF-8" standalone="no"?>
<!DOCTYPE svg PUBLIC "-//W3C//DTD SVG 1.1//EN" "http://www.w3.org/Graphics/SVG/1.1/DTD/svg11.dtd">
<svg width="100%" height="100%" viewBox="0 0 52 51" version="1.1" xmlns="http://www.w3.org/2000/svg" xmlns:xlink="http://www.w3.org/1999/xlink" xml:space="preserve" xmlns:serif="http://www.serif.com/" style="fill-rule:evenodd;clip-rule:evenodd;stroke-linejoin:round;stroke-miterlimit:2;">
    <g transform="matrix(1,0,0,1,-1764.85,-889.892)">
        <g transform="matrix(1,0,0,0.834229,1585.07,885.265)">
            <g transform="matrix(1,0,0,1,200.303,-0.400369)">
                <g transform="matrix(0.107911,0,0,0.129354,-20.5162,5.2785)">
                    <path d="M272.23,5.164L181.937,5.164L0,475.185L85.168,475.185C94.199,475.185 101.775,472.764 107.896,467.921C114.036,463.085 118.287,457.656 120.649,451.635L220.186,167.433C223.417,159.252 226.862,149.573 230.521,138.395C234.167,127.21 272.23,5.164 272.23,5.164Z" style="fill:url(#_Linear1);fill-rule:nonzero;"/>
                </g>
                <g transform="matrix(0.107911,0,0,0.129354,-20.5162,5.2785)">
                    <path d="M277.036,5.164L181.937,5.164C181.937,5.164 201.568,11.285 208.823,28.616L354.861,451.635C357.72,458.336 362.278,464.175 368.086,468.573C373.886,472.984 381.519,475.188 390.984,475.185L475.51,475.185L299.518,20.568C297.762,16.032 294.675,12.133 290.663,9.384C286.65,6.635 281.9,5.164 277.036,5.164Z" style="fill:rgb(221,101,2);fill-rule:nonzero;"/>
                </g>
                <g transform="matrix(0.107911,0,0,0.129354,-20.5162,5.2785)">
                    <path d="M475.046,159.95C468.426,160.272 462.554,160.669 450.08,163.503C262.976,206.011 87.905,329.576 0,475.185L93.978,475.185C104.572,475.185 115.656,471.39 121.692,462.743C235.181,300.161 386.851,210.74 454.353,175.506C473.1,165.72 474.087,161.779 475.046,159.95Z" style="fill:url(#_Linear2);fill-rule:nonzero;"/>
                </g>
            </g>
        </g>
    </g>
    <defs>
        <linearGradient id="_Linear1" x1="0" y1="0" x2="1" y2="0" gradientUnits="userSpaceOnUse" gradientTransform="matrix(151.23,-378.095,378.095,151.23,64.9222,424.212)"><stop offset="0" style="stop-color:rgb(255,175,25);stop-opacity:1"/><stop offset="0.29" style="stop-color:rgb(255,170,20);stop-opacity:1"/><stop offset="0.59" style="stop-color:rgb(255,154,7);stop-opacity:1"/><stop offset="0.83" style="stop-color:rgb(248,148,6);stop-opacity:1"/><stop offset="0.92" style="stop-color:rgb(232,135,3);stop-opacity:1"/><stop offset="1" style="stop-color:rgb(216,123,0);stop-opacity:1"/></linearGradient>
        <linearGradient id="_Linear2" x1="0" y1="0" x2="1" y2="0" gradientUnits="userSpaceOnUse" gradientTransform="matrix(195.688,-184.619,184.619,195.688,76.5415,444.643)"><stop offset="0" style="stop-color:rgb(255,208,87);stop-opacity:1"/><stop offset="1" style="stop-color:rgb(255,156,16);stop-opacity:1"/></linearGradient>
    </defs>
</svg>
