<?xml version="1.0" encoding="UTF-8" standalone="no"?>
<!DOCTYPE svg PUBLIC "-//W3C//DTD SVG 1.1//EN" "http://www.w3.org/Graphics/SVG/1.1/DTD/svg11.dtd">
<svg width="100%" height="100%" viewBox="0 0 274 52" version="1.1" xmlns="http://www.w3.org/2000/svg" xmlns:xlink="http://www.w3.org/1999/xlink" xml:space="preserve" xmlns:serif="http://www.serif.com/" style="fill-rule:evenodd;clip-rule:evenodd;stroke-linejoin:round;stroke-miterlimit:2;">
    <g transform="matrix(1,0,0,1,-1596.9,-889.892)">
        <g transform="matrix(1,0,0,0.834229,1585.07,885.265)">
            <g transform="matrix(1,0,0,1,32.3453,0)">
                <g transform="matrix(0.107911,0,0,0.129354,-20.5162,5.2785)">
                    <path d="M272.23,5.164L181.937,5.164L0,475.185L85.168,475.185C94.199,475.185 101.775,472.764 107.896,467.921C114.036,463.085 118.287,457.656 120.649,451.635L220.186,167.433C223.417,159.252 226.862,149.573 230.521,138.395C234.167,127.21 272.23,5.164 272.23,5.164Z" style="fill:url(#_Linear1);fill-rule:nonzero;"/>
                </g>
                <g transform="matrix(0.107911,0,0,0.129354,-20.5162,5.2785)">
                    <path d="M277.036,5.164L181.937,5.164C181.937,5.164 201.568,11.285 208.823,28.616L354.861,451.635C357.72,458.336 362.278,464.175 368.086,468.573C373.886,472.984 381.519,475.188 390.984,475.185L475.51,475.185L299.518,20.568C297.762,16.032 294.675,12.133 290.663,9.384C286.65,6.635 281.9,5.164 277.036,5.164Z" style="fill:rgb(38,94,212);fill-rule:nonzero;"/>
                </g>
                <g transform="matrix(0.107911,0,0,0.129354,-20.5162,5.2785)">
                    <path d="M475.046,159.95C468.426,160.272 462.554,160.669 450.08,163.503C262.976,206.011 87.905,329.576 0,475.185L93.978,475.185C104.572,475.185 115.656,471.39 121.692,462.743C235.181,300.161 386.851,210.74 454.353,175.506C473.1,165.72 474.087,161.779 475.046,159.95Z" style="fill:url(#_Linear2);fill-rule:nonzero;"/>
                </g>
            </g>
        </g>
        <g transform="matrix(1,0,0,0.834229,1585.07,885.265)">
            <g transform="matrix(1,0,0,1,200.303,-0.400369)">
                <g transform="matrix(0.107911,0,0,0.129354,-20.5162,5.2785)">
                    <path d="M272.23,5.164L181.937,5.164L0,475.185L85.168,475.185C94.199,475.185 101.775,472.764 107.896,467.921C114.036,463.085 118.287,457.656 120.649,451.635L220.186,167.433C223.417,159.252 226.862,149.573 230.521,138.395C234.167,127.21 272.23,5.164 272.23,5.164Z" style="fill:url(#_Linear3);fill-rule:nonzero;"/>
                </g>
                <g transform="matrix(0.107911,0,0,0.129354,-20.5162,5.2785)">
                    <path d="M277.036,5.164L181.937,5.164C181.937,5.164 201.568,11.285 208.823,28.616L354.861,451.635C357.72,458.336 362.278,464.175 368.086,468.573C373.886,472.984 381.519,475.188 390.984,475.185L475.51,475.185L299.518,20.568C297.762,16.032 294.675,12.133 290.663,9.384C286.65,6.635 281.9,5.164 277.036,5.164Z" style="fill:rgb(221,101,2);fill-rule:nonzero;"/>
                </g>
                <g transform="matrix(0.107911,0,0,0.129354,-20.5162,5.2785)">
                    <path d="M475.046,159.95C468.426,160.272 462.554,160.669 450.08,163.503C262.976,206.011 87.905,329.576 0,475.185L93.978,475.185C104.572,475.185 115.656,471.39 121.692,462.743C235.181,300.161 386.851,210.74 454.353,175.506C473.1,165.72 474.087,161.779 475.046,159.95Z" style="fill:url(#_Linear4);fill-rule:nonzero;"/>
                </g>
            </g>
        </g>
        <g transform="matrix(1,0,0,0.834229,1585.07,885.265)">
            <g transform="matrix(1,0,0,1.19871,0.0331649,5.34706)">
                <g transform="matrix(1,0,0,1,16.4086,0)">
                    <path d="M46.7,0.4L56,0.4L56,39.2C56,40.5 56.3,41.6 57,42.3C57.6,43 58.6,43.4 59.8,43.4C60.4,43.4 61,43.3 61.6,43.1C62.3,42.9 62.9,42.7 63.5,42.4L64.7,49.4C63.5,50 62,50.5 60.3,50.8C58.6,51.1 57.1,51.3 55.8,51.3C52.9,51.3 50.7,50.5 49.1,49C47.5,47.5 46.7,45.3 46.7,42.4L46.7,0.4Z" style="fill:rgb(38,94,212);fill-rule:nonzero;"/>
                    <path d="M66.8,0.4L76.1,0.4L76.1,39.2C76.1,40.5 76.4,41.6 77.1,42.3C77.7,43 78.7,43.4 79.9,43.4C80.5,43.4 81.1,43.3 81.7,43.1C82.4,42.9 83,42.7 83.6,42.4L84.8,49.4C83.6,50 82.1,50.5 80.4,50.8C78.7,51.1 77.2,51.3 75.9,51.3C73,51.3 70.8,50.5 69.2,49C67.6,47.5 66.8,45.3 66.8,42.4L66.8,0.4Z" style="fill:rgb(38,94,212);fill-rule:nonzero;"/>
                    <path d="M103.8,51.6C100.9,51.6 98.3,51.1 95.9,50.1C93.6,49.1 91.5,47.8 89.9,46.1C88.2,44.4 87,42.4 86.1,40.2C85.2,37.9 84.8,35.6 84.8,33.1C84.8,30.5 85.2,28.1 86.1,25.8C87,23.5 88.2,21.5 89.9,19.8C91.6,18.1 93.6,16.7 95.9,15.7C98.3,14.7 100.9,14.2 103.9,14.2C106.8,14.2 109.5,14.7 111.8,15.7C114.1,16.7 116.1,18.1 117.7,19.8C119.3,21.5 120.6,23.5 121.4,25.7C122.3,28 122.7,30.3 122.7,32.7L122.7,34.4C122.7,35 122.6,35.4 122.5,35.8L94.5,35.8C94.6,37.2 95,38.5 95.5,39.6C96.1,40.7 96.8,41.6 97.6,42.4C98.5,43.2 99.5,43.8 100.6,44.2C101.7,44.6 102.9,44.8 104.1,44.8C105.9,44.8 107.7,44.4 109.3,43.5C110.9,42.6 112.1,41.4 112.6,39.9L120.5,42.1C119.2,44.9 117,47.1 114.1,48.9C111.4,50.7 107.9,51.6 103.8,51.6ZM113.2,29.7C113,27 112,24.8 110.2,23.2C108.4,21.6 106.3,20.7 103.7,20.7C102.5,20.7 101.3,20.9 100.2,21.4C99.1,21.8 98.2,22.4 97.3,23.2C96.5,24 95.8,24.9 95.3,26C94.8,27.1 94.5,28.3 94.4,29.7L113.2,29.7Z" style="fill:rgb(38,94,212);fill-rule:nonzero;"/>
                    <path d="M160.3,50.9L151,50.9L151,30.6C151,27.7 150.5,25.6 149.5,24.2C148.5,22.9 147.1,22.2 145.3,22.2C144.4,22.2 143.4,22.4 142.5,22.8C141.5,23.2 140.6,23.7 139.8,24.4C138.9,25.1 138.2,25.9 137.5,26.8C136.8,27.7 136.3,28.7 136,29.8L136,50.9L126.7,50.9L126.7,14.7L135.1,14.7L135.1,21.4C136.4,19.1 138.4,17.3 140.9,16C143.4,14.7 146.3,14.1 149.5,14.1C151.8,14.1 153.6,14.5 155,15.3C156.4,16.1 157.5,17.2 158.3,18.5C159.1,19.8 159.6,21.4 159.9,23.1C160.2,24.8 160.3,26.5 160.3,28.3L160.3,50.9Z" style="fill:rgb(38,94,212);fill-rule:nonzero;"/>
                </g>
                <g transform="matrix(5.76202,0,0,5.76202,-829.589,-135.053)">
                    <g transform="matrix(12,0,0,12,183.302,32.2092)">
                        <path d="M0.431,-0.401C0.427,-0.395 0.423,-0.391 0.419,-0.388C0.415,-0.385 0.409,-0.384 0.402,-0.384C0.395,-0.384 0.389,-0.386 0.383,-0.39C0.377,-0.394 0.37,-0.398 0.362,-0.402C0.354,-0.407 0.344,-0.411 0.333,-0.415C0.322,-0.419 0.308,-0.421 0.292,-0.421C0.271,-0.421 0.253,-0.417 0.238,-0.409C0.223,-0.402 0.211,-0.391 0.201,-0.377C0.191,-0.363 0.183,-0.346 0.178,-0.326C0.173,-0.306 0.171,-0.283 0.171,-0.259C0.171,-0.206 0.182,-0.166 0.203,-0.138C0.224,-0.11 0.253,-0.096 0.29,-0.096C0.302,-0.096 0.313,-0.097 0.322,-0.099C0.331,-0.101 0.339,-0.104 0.346,-0.107C0.353,-0.11 0.359,-0.114 0.364,-0.118C0.369,-0.122 0.374,-0.126 0.378,-0.129C0.383,-0.132 0.387,-0.135 0.392,-0.137C0.396,-0.139 0.401,-0.141 0.407,-0.141C0.418,-0.141 0.426,-0.137 0.432,-0.129L0.471,-0.079C0.457,-0.062 0.441,-0.047 0.425,-0.036C0.408,-0.025 0.391,-0.016 0.373,-0.01C0.355,-0.003 0.337,0.001 0.319,0.004C0.3,0.006 0.282,0.007 0.264,0.008C0.232,0.007 0.202,0.002 0.174,-0.01C0.146,-0.022 0.121,-0.039 0.1,-0.062C0.078,-0.085 0.061,-0.113 0.049,-0.146C0.036,-0.179 0.03,-0.216 0.03,-0.259C0.03,-0.296 0.035,-0.331 0.047,-0.364C0.058,-0.396 0.074,-0.424 0.095,-0.448C0.116,-0.471 0.143,-0.49 0.174,-0.503C0.206,-0.517 0.242,-0.524 0.283,-0.524C0.323,-0.524 0.357,-0.517 0.387,-0.504C0.417,-0.492 0.443,-0.473 0.467,-0.45L0.431,-0.401Z" style="fill:rgb(221,101,2);fill-rule:nonzero;"/>
                    </g>
                    <g transform="matrix(12,0,0,12,189.05,32.2092)">
                        <path d="M0.235,0.008C0.212,0.008 0.191,0.005 0.173,-0.002C0.155,-0.009 0.14,-0.019 0.128,-0.032C0.115,-0.044 0.106,-0.059 0.1,-0.078C0.093,-0.096 0.09,-0.116 0.09,-0.139L0.09,-0.417L0.042,-0.417C0.034,-0.417 0.028,-0.419 0.023,-0.424C0.018,-0.428 0.015,-0.435 0.015,-0.445L0.015,-0.499L0.098,-0.514L0.126,-0.647C0.129,-0.662 0.139,-0.67 0.156,-0.67L0.228,-0.67L0.228,-0.513L0.361,-0.513L0.361,-0.417L0.228,-0.417L0.228,-0.148C0.228,-0.133 0.231,-0.122 0.238,-0.114C0.245,-0.105 0.255,-0.101 0.268,-0.101C0.274,-0.101 0.28,-0.102 0.284,-0.103C0.289,-0.105 0.293,-0.106 0.297,-0.108C0.3,-0.11 0.303,-0.112 0.306,-0.113C0.309,-0.115 0.312,-0.116 0.315,-0.116C0.319,-0.116 0.322,-0.115 0.325,-0.113C0.327,-0.111 0.33,-0.108 0.333,-0.103L0.374,-0.038C0.355,-0.023 0.334,-0.011 0.31,-0.004C0.285,0.004 0.261,0.008 0.235,0.008Z" style="fill:rgb(221,101,2);fill-rule:nonzero;"/>
                    </g>
                </g>
            </g>
        </g>
    </g>
    <defs>
        <linearGradient id="_Linear1" x1="0" y1="0" x2="1" y2="0" gradientUnits="userSpaceOnUse" gradientTransform="matrix(221.092,-621.164,621.164,221.092,-9.66401,660.044)"><stop offset="0" style="stop-color:rgb(0,213,255);stop-opacity:1"/><stop offset="0.18" style="stop-color:rgb(0,213,255);stop-opacity:1"/><stop offset="0.31" style="stop-color:rgb(6,193,244);stop-opacity:1"/><stop offset="0.57" style="stop-color:rgb(20,139,215);stop-opacity:1"/><stop offset="0.9" style="stop-color:rgb(26,76,174);stop-opacity:1"/><stop offset="1" style="stop-color:rgb(26,76,174);stop-opacity:1"/></linearGradient>
        <linearGradient id="_Linear2" x1="0" y1="0" x2="1" y2="0" gradientUnits="userSpaceOnUse" gradientTransform="matrix(-507.947,371.327,-371.327,-507.947,362.668,220.433)"><stop offset="0" style="stop-color:rgb(0,213,255);stop-opacity:1"/><stop offset="0.38" style="stop-color:rgb(0,213,255);stop-opacity:1"/><stop offset="0.47" style="stop-color:rgb(2,207,253);stop-opacity:1"/><stop offset="0.59" style="stop-color:rgb(8,189,246);stop-opacity:1"/><stop offset="0.73" style="stop-color:rgb(18,159,235);stop-opacity:1"/><stop offset="0.89" style="stop-color:rgb(32,119,220);stop-opacity:1"/><stop offset="1" style="stop-color:rgb(43,85,207);stop-opacity:1"/></linearGradient>
        <linearGradient id="_Linear3" x1="0" y1="0" x2="1" y2="0" gradientUnits="userSpaceOnUse" gradientTransform="matrix(151.23,-378.095,378.095,151.23,64.9222,424.212)"><stop offset="0" style="stop-color:rgb(255,175,25);stop-opacity:1"/><stop offset="0.29" style="stop-color:rgb(255,170,20);stop-opacity:1"/><stop offset="0.59" style="stop-color:rgb(255,154,7);stop-opacity:1"/><stop offset="0.83" style="stop-color:rgb(248,148,6);stop-opacity:1"/><stop offset="0.92" style="stop-color:rgb(232,135,3);stop-opacity:1"/><stop offset="1" style="stop-color:rgb(216,123,0);stop-opacity:1"/></linearGradient>
        <linearGradient id="_Linear4" x1="0" y1="0" x2="1" y2="0" gradientUnits="userSpaceOnUse" gradientTransform="matrix(195.688,-184.619,184.619,195.688,76.5415,444.643)"><stop offset="0" style="stop-color:rgb(255,208,87);stop-opacity:1"/><stop offset="1" style="stop-color:rgb(255,156,16);stop-opacity:1"/></linearGradient>
    </defs>
</svg>
