<?xml version="1.0" encoding="UTF-8" standalone="no"?><!DOCTYPE svg PUBLIC "-//W3C//DTD SVG 1.1//EN" "http://www.w3.org/Graphics/SVG/1.1/DTD/svg11.dtd"><svg width="100%" height="100%" viewBox="0 0 448 448" version="1.1" xmlns="http://www.w3.org/2000/svg" xmlns:xlink="http://www.w3.org/1999/xlink" xml:space="preserve" xmlns:serif="http://www.serif.com/" style="fill-rule:evenodd;clip-rule:evenodd;stroke-linejoin:round;stroke-miterlimit:1.5;"><path d="M254.753,2.208c-122.178,-17.205 -235.34,68.02 -252.545,190.198c-17.205,122.179 68.02,235.341 190.198,252.546c122.179,17.205 235.341,-68.02 252.546,-190.199c17.205,-122.178 -68.02,-235.34 -190.199,-252.545Z" style="fill:none;"/><g><clipPath id="_clip1"><path d="M254.753,2.208c-122.178,-17.205 -235.34,68.02 -252.545,190.198c-17.205,122.179 68.02,235.341 190.198,252.546c122.179,17.205 235.341,-68.02 252.546,-190.199c17.205,-122.178 -68.02,-235.34 -190.199,-252.545Z"/></clipPath><g clip-path="url(#_clip1)"><clipPath id="_clip2"><path d="M744.112,161.692l-576.971,-451.034l-563.792,721.214l576.972,451.034l563.791,-721.214Z"/></clipPath><g clip-path="url(#_clip2)"><path d="M550.807,47.763c-96.386,-14.597 -188.932,-12.983 -277.063,7.309c166.241,102.412 227.371,219.725 281.547,338.029c56.99,-109.73 53.673,-239.793 -4.485,-345.338l0.001,0Zm-13.509,-22.549l-1.017,4.137c-168.529,-27.54 -306.261,12.093 -433.738,74.063c29.672,-86.831 70.774,-168.872 132.137,-242.419l8.822,-2.258c74.512,2.664 148.895,28.009 212.125,77.437c32.873,25.698 60.15,55.901 81.671,89.04Zm-322.939,-165.755c-121.34,153.844 -148.921,285.867 -153.169,412.469c-53.119,-53.788 -103.244,-124.292 -146.501,-233.312c8.012,-13.554 16.982,-26.74 26.936,-39.472c68.335,-87.416 168.463,-135.355 271.244,-140.247l1.489,0.561l0.001,0.001Zm-307.565,197.092c49.88,124.874 124.726,243.164 280.771,339.979c-70.416,18.101 -158.746,23.666 -275.895,9.036c-56.868,-100.197 -63.797,-223.274 -15.993,-330.162l11.118,-18.852l-0.001,-0.001Zm15.751,365.202c135.061,8.931 269.184,21.209 433.239,-71.596c-26.403,93.269 -74.696,169.426 -129.322,240.646c-77.755,-0.713 -155.88,-26.071 -221.869,-77.657c-33.035,-25.825 -60.423,-56.206 -81.989,-89.537l-0.058,-1.856l-0.001,0Zm322.344,168.766c81.057,-114.511 153.67,-235.62 157.706,-410.339c58.607,62.472 107.124,137.869 145.208,226.595c-8.573,14.926 -18.293,29.441 -29.207,43.402c-68.883,88.116 -170.064,136.11 -273.707,140.342Z" style="fill:#39e;"/></g><g><path d="M306.317,215.231l48.275,27.871l0,55.743l-48.275,27.872l-48.275,-27.872l0,-55.743l48.275,-27.871Z" style="fill:none;stroke:#39e;stroke-width:15px;"/><path d="M262.044,83.133l35.252,20.353l0,40.705l-35.252,20.353l-35.252,-20.353l0,-40.705l35.252,-20.353Z" style="fill:none;stroke:#39e;stroke-width:15px;"/><circle cx="306.317" cy="270.974" r="22.246" style="fill:none;stroke:#39e;stroke-width:10px;"/><path d="M158.382,129.63l48.275,27.871l0,55.743l-48.275,27.871l-48.274,-27.871l0,-55.743l48.274,-27.871Z" style="fill:none;stroke:#39e;stroke-width:15px;"/><circle cx="158.382" cy="185.373" r="22.246" style="fill:none;stroke:#39e;stroke-width:10px;"/><circle cx="262.044" cy="123.839" r="12.104" style="fill:none;stroke:#39e;stroke-width:6px;"/><path d="M158.382,260.573l35.252,20.352l0,40.706l-35.252,20.352l-35.252,-20.352l0,-40.706l35.252,-20.352Z" style="fill:none;stroke:#39e;stroke-width:15px;"/><circle cx="158.382" cy="301.278" r="12.104" style="fill:none;stroke:#39e;stroke-width:6px;"/><path d="M206.657,213.087l51.385,31.037" style="fill:none;stroke:#39e;stroke-width:12px;"/><path d="M208.798,156.675l22.727,-14.235" style="fill:none;stroke:#39e;stroke-width:12px;"/><path d="M158.382,234.079l0,31.758" style="fill:none;stroke:#39e;stroke-width:12px;"/><path d="M92.168,152.813l22.604,13.021l5.539,-9.594l-25.678,-14.83c-0.905,3.697 -1.665,7.546 -2.465,11.403Z" style="fill:#39e;"/><path d="M152.829,352.288l0.028,-18.63l11.078,0l0,26.247c-5.043,-3.399 -7.997,-5.405 -11.106,-7.617Z" style="fill:#39e;"/><path d="M367.532,311.941l-22.589,-13.074l5.539,-9.594l19.863,11.488c-0.87,3.758 -1.623,6.919 -2.813,11.18Z" style="fill:#39e;"/><path d="M313.118,100.874l-20.2,11.634l-5.54,-9.595l16.376,-9.439c3.16,2.377 6.062,4.701 9.364,7.4Z" style="fill:#39e;"/></g></g></g></svg>
